<svg height="130" viewBox="0 0 132.29166 34.395832" width="500" xmlns="http://www.w3.org/2000/svg" xmlns:xlink="http://www.w3.org/1999/xlink"><linearGradient id="a" gradientUnits="userSpaceOnUse" x1="3241.6836" x2="3254.9529" y1="-1355.4329" y2="-1355.4329"/><linearGradient id="b" gradientUnits="userSpaceOnUse" x1=".00013840902" x2="49.0972850603" y1="-470.55137310386" y2="-470.55137310386"/><linearGradient id="c" gradientUnits="userSpaceOnUse" x1="175.3012045598" x2="365.34925723539" y1="67.02462543859" y2="67.02462543859"/><linearGradient id="d" gradientUnits="userSpaceOnUse" x1="375.12427733323" x2="464.91384663748" y1="60.16806508801" y2="60.16806508801"/><g transform="translate(7.143752 141.67967)"><g fill="url(#a)" fill-rule="evenodd" transform="matrix(.25000046258 0 0 .25000046258 -595.69750235748 100.78449340148)"><path d="m2450.431-937.13662 51.9615 30v12l-51.9615 30v-12l41.5693-24-41.5692-24z"/><path d="m2450.431-913.13662 20.7847 12-20.7847 12z"/></g><path d="m49.097656-504.56641-49.097656 28.34571v11.33789l39.277344-22.67578v45.35351l9.820312 5.66992zm-19.638672 34.01563-19.6406246 11.33789 19.6406246 11.33789z" fill="url(#b)" fill-rule="evenodd" transform="matrix(.26458333504 0 0 .26458333504 1.32292579812 .00002759012)"/><path d="m263.22656 34.349609c-1.66644 0-2.95278.477436-3.85742 1.429688-.90464.904639-1.35742 2.069669-1.35742 3.498047s.45278 2.59536 1.35742 3.5c.90464.857027 2.19098 1.285156 3.85742 1.285156s2.99818-.428129 3.99805-1.285156c.99986-.857027 1.5-2.024009 1.5-3.5s-.50014-2.665673-1.5-3.570313c-.99987-.904639-2.33161-1.357422-3.99805-1.357422zm43.95117 0c-1.66644 0-2.95082.477436-3.85546 1.429688-.90464.904639-1.35743 2.069669-1.35743 3.498047s.45279 2.59536 1.35743 3.5c.90464.857027 2.18902 1.285156 3.85546 1.285156 1.66645 0 3.00014-.428129 4-1.285156.99987-.857027 1.5-2.024009 1.5-3.5s-.50013-2.665673-1.5-3.570313c-.99986-.904639-2.33355-1.357422-4-1.357422zm-118.46166.357422-14.49805 50.351563h8.92774l2.92773-11.285156h11.78516l3.07031 11.285156h9.42773l-14.57031-50.351563zm58.71166 5.285157-8.49804 2.642578v6.71289h-3.92774v7.570313h3.92774v18.71289c0 3.713784.66684 6.356519 2 7.927735 1.38076 1.571216 3.42866 2.355468 6.14258 2.355468 1.5236 0 2.9747-.189411 4.35546-.570312 1.38077-.333288 2.59511-.761418 3.64258-1.285156l-1.07031-6.785156c-.66658.285675-1.28607.49974-1.85742.642578-.57135.142837-1.2155.214843-1.92969.214843-1.04748 0-1.78438-.430082-2.21289-1.287109-.3809-.857027-.57227-2.308127-.57227-4.355469v-15.570312h6.92774v-7.570313h-6.92774zm80.23243 0-8.49805 2.642578v6.71289h-3.92969v7.570313h3.92969v18.71289c0 3.713784.66489 6.356519 1.99805 7.927735 1.38076 1.571216 3.42866 2.355468 6.14257 2.355468 1.52361 0 2.97666-.189411 4.35743-.570312 1.38076-.333288 2.5951-.761418 3.64257-1.285156l-1.07226-6.785156c-.66658.285675-1.28607.49974-1.85742.642578-.57135.142837-1.21355.214843-1.92774.214843-1.04747 0-1.78437-.430082-2.21289-1.287109-.3809-.857027-.57226-2.308127-.57226-4.355469v-15.570312h6.92773v-7.570313h-6.92773zm-135.65894 6.855468h.28516l1.14453 7.857422 2.85547 11.640625h-8.2832l2.78515-11.570312zm31.94605 1.572266c-4.33275 0-7.61963 1.570458-9.85743 4.71289-2.23779 3.142433-3.35546 7.833061-3.35546 14.070313 0 2.856756.21406 5.452139.64257 7.785156.47613 2.285405 1.23768 4.261293 2.28516 5.927735 1.04748 1.618828 2.38117 2.880516 4 3.785156 1.66644.857027 3.71238 1.285156 6.14062 1.285156 1.66645 0 3.33356-.238718 5-.714844 1.66645-.476126 3.09485-1.190326 4.28516-2.142578l-1.78516-6.570312c-.71418.476126-1.50039.881555-2.35742 1.214844-.80941.285675-1.80968.427734-3 .427734-2.23779 0-3.88025-1.022971-4.92773-3.070313-.99987-2.047342-1.5-4.690077-1.5-7.927734 0-3.856621.50013-6.641415 1.5-8.355469.99986-1.761666 2.50027-2.642578 4.5-2.642578 1.09509 0 2.02335.117406 2.78515.355469.80942.19045 1.64298.501174 2.5.929687l2-7.070312c-1.04747-.571351-2.26181-1.048787-3.64257-1.429688-1.33316-.3809-3.07033-.570312-5.21289-.570312zm35.06445.927734v35.710938h8.5v-35.710938zm11.05469 0 12.64257 36.066406h5.7129l11.99804-36.066406h-9.14062l-4.42774 18.570313-.78711 5.71289h-.28515l-.85742-5.642578-4.92774-18.640625zm32.89843 0v35.710938h8.49805v-35.710938zm33.53125 0 12.42774 35.710938c-.28568 1.571216-.64375 2.832904-1.07227 3.785156-.42851.952252-.92865 1.641799-1.5 2.070312-.52374.476127-1.11858.714844-1.78515.714844-.61897.04761-1.23846-.04905-1.85743-.287109l-1.42773 7.285156c.66658.380901 1.45278.642319 2.35742.785156.95225.190451 1.92787.28711 2.92774.28711 1.42837 0 2.64271-.430083 3.64257-1.28711 1.04748-.809414 1.97575-1.999096 2.78516-3.570312s1.57097-3.475098 2.28516-5.712891c.71419-2.237792 1.47574-4.761168 2.28515-7.570312l8.92774-32.210938h-8.71289l-4.14258 19.998047-.64258 5.642578h-.35742l-.92774-5.572265-5-20.06836z" fill="url(#c)" transform="matrix(.26458331294 0 0 .26458331294 -7.14375083754 -141.67966970285)"/><path d="m386.9082 34.349609c-2.04734 0-4.09523.119359-6.14258.357422-2.04734.190451-3.92657.476521-5.64062.857422v49.494141h8.99805v-17.212891c.19045.04761.49922.09497.92773.142578l1.42969.142578h1.35742.92773c2.04735 0 4.02324-.30877 5.92774-.927734 1.95212-.618964 3.66659-1.619234 5.14258-3s2.64102-3.165289 3.49804-5.355469c.90464-2.19018 1.35743-4.857568 1.35743-8 0-3.47572-.52284-6.285167-1.57032-8.427734-1.04747-2.19018-2.40582-3.879997-4.07226-5.070313-1.66644-1.190315-3.57033-1.976521-5.71289-2.357421-2.09496-.428514-4.23756-.642579-6.42774-.642579zm51.72461.714844v48.564453c1.14271.571352 2.76052 1.09614 4.85547 1.572266 2.14257.476126 4.47653.71289 7 .71289 4.61842 0 8.25948-1.570458 10.92578-4.71289 2.66631-3.190045 4-8.164791 4-14.925781 0-6.237252-.95292-10.761169-2.85742-13.570313-1.85689-2.809144-4.47497-4.214844-7.85547-4.214844-3.19004 0-5.64141 1.047624-7.35547 3.142578h-.21484v-16.568359zm-50.86719 7.285156c.99987 0 1.95279.142059 2.85743.427735.90464.285675 1.68889.761158 2.35547 1.427734.71418.618964 1.26167 1.477176 1.64257 2.572266.42852 1.09509.64258 2.428784.64258 4 0 1.856891-.21406 3.402697-.64258 4.640625-.42851 1.190315-1.02335 2.143233-1.78515 2.857422-.71419.666576-1.54775 1.142058-2.5 1.427734s-1.95057.429687-2.99805.429687c-.28568.000001-.83316-.02465-1.64258-.07227-.7618-.09522-1.28659-.189931-1.57226-.285156v-17.06836c.95225-.238063 2.16658-.357422 3.64257-.357422zm20.31836 6.998047v23.210938c0 2.666306.21407 4.880911.64258 6.642578.42852 1.714054 1.04606 3.070448 1.85547 4.070312.80942.999865 1.78699 1.691365 2.92969 2.072266 1.1427.428513 2.45174.642578 3.92773.642578 2.28541 0 4.18929-.547488 5.71289-1.642578 1.57122-1.09509 2.81021-2.476137 3.71485-4.142578h.21289l1.5 4.857422h6.42773c-.3809-1.523604-.64232-3.215374-.78515-5.072266-.14284-1.904504-.21485-3.833039-.21485-5.785156v-24.853516h-8.49804v23.853516c-.38091 1.380765-1.02505 2.572401-1.92969 3.572266-.90464.952252-2.02232 1.427734-3.35547 1.427734-1.38077 0-2.33368-.547488-2.85742-1.642578s-.78516-3.046325-.78516-5.855469v-21.355469zm43.83204 6.927735c1.61882 0 2.80851.858211 3.57031 2.572265.7618 1.666441 1.14258 4.307223 1.14258 7.925782 0 4.094684-.47549 7.023489-1.42774 8.785156-.95225 1.714054-2.3333 2.572265-4.14258 2.572265-1.61882 0-2.92787-.26337-3.92773-.787109v-17.353516c.80941-2.475855 2.40453-3.714843 4.78516-3.714843z" fill="url(#d)" transform="matrix(.26458331294 0 0 .26458331294 -7.14375083754 -141.67966970285)"/></g></svg>